# xmcd
#
# Track frame offsets: 
#        150
#        13488
#        30740
#        46151
#        65994
#        80627
#        105235
#        120777
#        135412
#        153749
#        172027
#        190817
#        215078
#        231613
#        249223
#        280310
#
# Disc length: 4440 seconds
#
# Revision: 2
# Processed by: cddbd v1.5.2PL0 Copyright (c) Steve Scherf et al.
# Submitted via: ExactAudioCopy v0.99pb4
#
DISCID=e5115610
DTITLE=L.O.C - Cassiopeia
DYEAR=2005
DGENRE=Rap
TTITLE0=Verden Udenfor
TTITLE1=Få Din Flask' På
TTITLE2=Vendt Om
TTITLE3=Hold Kæft Og Se Godt Ud
TTITLE4=Frk. Escobar
TTITLE5=Den Lukrative Rendesten
TTITLE6=Klub 21
TTITLE7=Du Gør Mig...
TTITLE8=Gemt Væk
TTITLE9=Ave Maria
TTITLE10=100
TTITLE11=Læg Den Hater Ned
TTITLE12=De Sidste Tider
TTITLE13=Ignorant
TTITLE14=Min Tilstand
TTITLE15=DATA
EXTD=L.O.C/Cassiopeia
EXTT0=
EXTT1=
EXTT2=
EXTT3=
EXTT4=
EXTT5=
EXTT6=
EXTT7=
EXTT8=
EXTT9=
EXTT10=
EXTT11=
EXTT12=
EXTT13=
EXTT14=
EXTT15=
PLAYORDER=
